%FSLAX34Y34*%
%MOMM*%
%LNSILK_TOP*%
G71*
G01*
%ADD10C, 0.15*%
%ADD11C, 0.20*%
%ADD12C, 0.10*%
%ADD13C, 0.16*%
%ADD14C, 0.22*%
%LPD*%
G54D10*
X351425Y693525D02*
X392425Y693525D01*
X392425Y779325D01*
X351425Y779325D01*
X351425Y693525D01*
G54D10*
X400500Y704750D02*
X400500Y711100D01*
G54D10*
X403675Y707925D02*
X397325Y707925D01*
G54D11*
X424204Y707735D02*
X424270Y777256D01*
X459847Y777265D01*
X459804Y707735D01*
X424204Y707735D01*
G54D12*
X373805Y665050D02*
X329405Y665050D01*
X329405Y685050D01*
X373805Y685050D01*
X373805Y665050D01*
G54D10*
X305000Y743000D02*
X327000Y743000D01*
X327000Y693000D01*
X305000Y693000D01*
X305000Y743000D01*
G54D10*
X277000Y743000D02*
X299000Y743000D01*
X299000Y693000D01*
X277000Y693000D01*
X277000Y743000D01*
G54D10*
X244000Y701000D02*
X266000Y701000D01*
X266000Y651000D01*
X244000Y651000D01*
X244000Y701000D01*
G54D10*
X208000Y980000D02*
X208000Y958000D01*
X158000Y958000D01*
X158000Y980000D01*
X208000Y980000D01*
G54D10*
X208000Y954000D02*
X208000Y932000D01*
X158000Y932000D01*
X158000Y954000D01*
X208000Y954000D01*
G54D10*
X139000Y743000D02*
X161000Y743000D01*
X161000Y693000D01*
X139000Y693000D01*
X139000Y743000D01*
G54D10*
X169000Y776000D02*
X191000Y776000D01*
X191000Y726000D01*
X169000Y726000D01*
X169000Y776000D01*
G54D11*
G75*
G01X136295Y625475D02*
G03X106905Y625475I-14695J20225D01*
G01*
G54D11*
X107314Y625486D02*
X135914Y625486D01*
G54D11*
G75*
G01X158075Y633305D02*
G03X158075Y662695I20225J14695D01*
G01*
G54D11*
X158100Y662300D02*
X158100Y633700D01*
G54D13*
X196589Y735773D02*
X195034Y736706D01*
X194256Y738573D01*
X194256Y740440D01*
X195034Y742306D01*
X196589Y743240D01*
X198145Y743240D01*
X199700Y742306D01*
X200478Y740440D01*
X201256Y742306D01*
X202812Y743240D01*
X204367Y743240D01*
X205923Y742306D01*
X206700Y740440D01*
X206700Y738573D01*
X205923Y736706D01*
X204367Y735773D01*
G54D13*
X196589Y746662D02*
X195034Y747595D01*
X194256Y749462D01*
X194256Y751329D01*
X195034Y753195D01*
X196589Y754129D01*
X198145Y754129D01*
X199700Y753195D01*
X200478Y751329D01*
X201256Y753195D01*
X202812Y754129D01*
X204367Y754129D01*
X205923Y753195D01*
X206700Y751329D01*
X206700Y749462D01*
X205923Y747595D01*
X204367Y746662D01*
G54D13*
X196589Y765018D02*
X204367Y765018D01*
X205923Y764084D01*
X206700Y762218D01*
X206700Y760351D01*
X205923Y758484D01*
X204367Y757551D01*
X196589Y757551D01*
X195034Y758484D01*
X194256Y760351D01*
X194256Y762218D01*
X195034Y764084D01*
X196589Y765018D01*
G54D13*
X166589Y691773D02*
X165034Y692706D01*
X164256Y694573D01*
X164256Y696440D01*
X165034Y698306D01*
X166589Y699240D01*
X168145Y699240D01*
X169700Y698306D01*
X170478Y696440D01*
X171256Y698306D01*
X172812Y699240D01*
X174367Y699240D01*
X175923Y698306D01*
X176700Y696440D01*
X176700Y694573D01*
X175923Y692706D01*
X174367Y691773D01*
G54D13*
X166589Y702662D02*
X165034Y703595D01*
X164256Y705462D01*
X164256Y707329D01*
X165034Y709195D01*
X166589Y710129D01*
X168145Y710129D01*
X169700Y709195D01*
X170478Y707329D01*
X171256Y709195D01*
X172812Y710129D01*
X174367Y710129D01*
X175923Y709195D01*
X176700Y707329D01*
X176700Y705462D01*
X175923Y703595D01*
X174367Y702662D01*
G54D13*
X166589Y721018D02*
X174367Y721018D01*
X175923Y720084D01*
X176700Y718218D01*
X176700Y716351D01*
X175923Y714484D01*
X174367Y713551D01*
X166589Y713551D01*
X165034Y714484D01*
X164256Y716351D01*
X164256Y718218D01*
X165034Y720084D01*
X166589Y721018D01*
G54D13*
X230375Y667139D02*
X228820Y666206D01*
X228042Y664339D01*
X228042Y662472D01*
X228820Y660606D01*
X230375Y659672D01*
X234264Y659672D01*
X235042Y659672D01*
X233486Y662472D01*
X233486Y664339D01*
X234264Y666206D01*
X235820Y667139D01*
X238153Y667139D01*
X239709Y666206D01*
X240486Y664339D01*
X240486Y662472D01*
X239709Y660606D01*
X238153Y659672D01*
X234264Y659672D01*
G54D13*
X240486Y671308D02*
X240486Y670562D01*
X239864Y670562D01*
X239864Y671308D01*
X240486Y671308D01*
X240486Y670562D01*
G54D13*
X234264Y679397D02*
X234264Y677530D01*
X233486Y675664D01*
X231931Y674730D01*
X230375Y674730D01*
X228820Y675664D01*
X228042Y677530D01*
X228042Y679397D01*
X228820Y681264D01*
X230375Y682197D01*
X231931Y682197D01*
X233486Y681264D01*
X234264Y679397D01*
X235042Y681264D01*
X236598Y682197D01*
X238153Y682197D01*
X239709Y681264D01*
X240486Y679397D01*
X240486Y677530D01*
X239709Y675664D01*
X238153Y674730D01*
X236598Y674730D01*
X235042Y675664D01*
X234264Y677530D01*
G54D13*
X240486Y685620D02*
X228042Y685620D01*
G54D13*
X235820Y688420D02*
X240486Y691220D01*
G54D13*
X237375Y685620D02*
X233486Y691220D01*
G54D13*
X263375Y712139D02*
X261820Y711206D01*
X261042Y709339D01*
X261042Y707472D01*
X261820Y705606D01*
X263375Y704672D01*
X267264Y704672D01*
X268042Y704672D01*
X266486Y707472D01*
X266486Y709339D01*
X267264Y711206D01*
X268820Y712139D01*
X271153Y712139D01*
X272709Y711206D01*
X273486Y709339D01*
X273486Y707472D01*
X272709Y705606D01*
X271153Y704672D01*
X267264Y704672D01*
G54D13*
X273486Y716308D02*
X273486Y715562D01*
X272864Y715562D01*
X272864Y716308D01*
X273486Y716308D01*
X273486Y715562D01*
G54D13*
X267264Y724397D02*
X267264Y722530D01*
X266486Y720664D01*
X264931Y719730D01*
X263375Y719730D01*
X261820Y720664D01*
X261042Y722530D01*
X261042Y724397D01*
X261820Y726264D01*
X263375Y727197D01*
X264931Y727197D01*
X266486Y726264D01*
X267264Y724397D01*
X268042Y726264D01*
X269598Y727197D01*
X271153Y727197D01*
X272709Y726264D01*
X273486Y724397D01*
X273486Y722530D01*
X272709Y720664D01*
X271153Y719730D01*
X269598Y719730D01*
X268042Y720664D01*
X267264Y722530D01*
G54D13*
X273486Y730620D02*
X261042Y730620D01*
G54D13*
X268820Y733420D02*
X273486Y736220D01*
G54D13*
X270375Y730620D02*
X266486Y736220D01*
G54D13*
X332375Y712139D02*
X330820Y711206D01*
X330042Y709339D01*
X330042Y707472D01*
X330820Y705606D01*
X332375Y704672D01*
X336264Y704672D01*
X337042Y704672D01*
X335486Y707472D01*
X335486Y709339D01*
X336264Y711206D01*
X337820Y712139D01*
X340153Y712139D01*
X341709Y711206D01*
X342486Y709339D01*
X342486Y707472D01*
X341709Y705606D01*
X340153Y704672D01*
X336264Y704672D01*
G54D13*
X342486Y716308D02*
X342486Y715562D01*
X341864Y715562D01*
X341864Y716308D01*
X342486Y716308D01*
X342486Y715562D01*
G54D13*
X336264Y724397D02*
X336264Y722530D01*
X335486Y720664D01*
X333931Y719730D01*
X332375Y719730D01*
X330820Y720664D01*
X330042Y722530D01*
X330042Y724397D01*
X330820Y726264D01*
X332375Y727197D01*
X333931Y727197D01*
X335486Y726264D01*
X336264Y724397D01*
X337042Y726264D01*
X338598Y727197D01*
X340153Y727197D01*
X341709Y726264D01*
X342486Y724397D01*
X342486Y722530D01*
X341709Y720664D01*
X340153Y719730D01*
X338598Y719730D01*
X337042Y720664D01*
X336264Y722530D01*
G54D13*
X342486Y730620D02*
X330042Y730620D01*
G54D13*
X337820Y733420D02*
X342486Y736220D01*
G54D13*
X339375Y730620D02*
X335486Y736220D01*
G54D13*
X176959Y994334D02*
X176026Y995889D01*
X174159Y996667D01*
X172292Y996667D01*
X170426Y995889D01*
X169492Y994334D01*
X169492Y990445D01*
X169492Y989667D01*
X172292Y991222D01*
X174159Y991222D01*
X176026Y990445D01*
X176959Y988889D01*
X176959Y986556D01*
X176026Y985000D01*
X174159Y984222D01*
X172292Y984222D01*
X170426Y985000D01*
X169492Y986556D01*
X169492Y990445D01*
G54D13*
X181128Y984222D02*
X180382Y984222D01*
X180382Y984845D01*
X181128Y984845D01*
X181128Y984222D01*
X180382Y984222D01*
G54D13*
X189217Y990445D02*
X187350Y990445D01*
X185484Y991222D01*
X184550Y992778D01*
X184550Y994334D01*
X185484Y995889D01*
X187350Y996667D01*
X189217Y996667D01*
X191084Y995889D01*
X192017Y994334D01*
X192017Y992778D01*
X191084Y991222D01*
X189217Y990445D01*
X191084Y989667D01*
X192017Y988111D01*
X192017Y986556D01*
X191084Y985000D01*
X189217Y984222D01*
X187350Y984222D01*
X185484Y985000D01*
X184550Y986556D01*
X184550Y988111D01*
X185484Y989667D01*
X187350Y990445D01*
G54D13*
X195440Y984222D02*
X195440Y996667D01*
G54D13*
X198240Y988889D02*
X201040Y984222D01*
G54D13*
X195440Y987334D02*
X201040Y991222D01*
G54D13*
X177959Y927334D02*
X177026Y928889D01*
X175159Y929667D01*
X173292Y929667D01*
X171426Y928889D01*
X170492Y927334D01*
X170492Y923445D01*
X170492Y922667D01*
X173292Y924222D01*
X175159Y924222D01*
X177026Y923445D01*
X177959Y921889D01*
X177959Y919556D01*
X177026Y918000D01*
X175159Y917222D01*
X173292Y917222D01*
X171426Y918000D01*
X170492Y919556D01*
X170492Y923445D01*
G54D13*
X182128Y917222D02*
X181382Y917222D01*
X181382Y917845D01*
X182128Y917845D01*
X182128Y917222D01*
X181382Y917222D01*
G54D13*
X190217Y923445D02*
X188350Y923445D01*
X186484Y924222D01*
X185550Y925778D01*
X185550Y927334D01*
X186484Y928889D01*
X188350Y929667D01*
X190217Y929667D01*
X192084Y928889D01*
X193017Y927334D01*
X193017Y925778D01*
X192084Y924222D01*
X190217Y923445D01*
X192084Y922667D01*
X193017Y921111D01*
X193017Y919556D01*
X192084Y918000D01*
X190217Y917222D01*
X188350Y917222D01*
X186484Y918000D01*
X185550Y919556D01*
X185550Y921111D01*
X186484Y922667D01*
X188350Y923445D01*
G54D13*
X196440Y917222D02*
X196440Y929667D01*
G54D13*
X199240Y921889D02*
X202040Y917222D01*
G54D13*
X196440Y920334D02*
X202040Y924222D01*
G54D13*
X348648Y658334D02*
X348648Y650556D01*
X347714Y649000D01*
X345848Y648222D01*
X343981Y648222D01*
X342114Y649000D01*
X341181Y650556D01*
X341181Y658334D01*
X342114Y659889D01*
X343981Y660667D01*
X345848Y660667D01*
X347714Y659889D01*
X348648Y658334D01*
G54D13*
X352817Y648222D02*
X352070Y648222D01*
X352070Y648845D01*
X352817Y648845D01*
X352817Y648222D01*
X352070Y648222D01*
G54D13*
X356239Y656000D02*
X360906Y660667D01*
X360906Y648222D01*
G54D13*
X364773Y739000D02*
X369440Y743666D01*
X369440Y731222D01*
G54D13*
X380329Y741333D02*
X379395Y742889D01*
X377529Y743666D01*
X375662Y743666D01*
X373795Y742889D01*
X372862Y741333D01*
X372862Y737444D01*
X372862Y736666D01*
X375662Y738222D01*
X377529Y738222D01*
X379395Y737444D01*
X380329Y735889D01*
X380329Y733555D01*
X379395Y732000D01*
X377529Y731222D01*
X375662Y731222D01*
X373795Y732000D01*
X372862Y733555D01*
X372862Y737444D01*
G54D14*
X49667Y667333D02*
X48333Y665111D01*
X45667Y664000D01*
X43000Y664000D01*
X40333Y665111D01*
X39000Y667333D01*
X39000Y678444D01*
X40333Y680667D01*
X43000Y681778D01*
X45667Y681778D01*
X48333Y680667D01*
X49667Y678444D01*
G54D14*
X65223Y678444D02*
X65223Y667333D01*
X63889Y665111D01*
X61223Y664000D01*
X58556Y664000D01*
X55889Y665111D01*
X54556Y667333D01*
X54556Y678444D01*
X55889Y680667D01*
X58556Y681778D01*
X61223Y681778D01*
X63889Y680667D01*
X65223Y678444D01*
G54D14*
X70112Y681778D02*
X70112Y664000D01*
X79445Y664000D01*
G54D14*
X84334Y664000D02*
X84334Y681778D01*
X91001Y681778D01*
X93667Y680667D01*
X95001Y678444D01*
X95001Y667333D01*
X93667Y665111D01*
X91001Y664000D01*
X84334Y664000D01*
G54D14*
X153704Y840074D02*
X135926Y840074D01*
G54D14*
X153704Y850741D02*
X135926Y850741D01*
G54D14*
X144815Y840074D02*
X144815Y850741D01*
G54D14*
X139260Y866297D02*
X150371Y866297D01*
X152593Y864963D01*
X153704Y862297D01*
X153704Y859630D01*
X152593Y856963D01*
X150371Y855630D01*
X139260Y855630D01*
X137037Y856963D01*
X135926Y859630D01*
X135926Y862297D01*
X137037Y864963D01*
X139260Y866297D01*
G54D14*
X153704Y876519D02*
X135926Y876519D01*
G54D14*
X135926Y871186D02*
X135926Y881853D01*
G54D13*
X200000Y625444D02*
X200000Y613000D01*
X204667Y620778D01*
X209333Y613000D01*
X209333Y625444D01*
G54D13*
X212755Y613000D02*
X217422Y625444D01*
X222088Y613000D01*
G54D13*
X214622Y617667D02*
X220222Y617667D01*
G54D13*
X229243Y613000D02*
X229243Y625444D01*
G54D13*
X225510Y625444D02*
X232977Y625444D01*
G54D13*
X242932Y613000D02*
X236399Y613000D01*
X236399Y625444D01*
X242932Y625444D01*
G54D13*
X236399Y619222D02*
X242932Y619222D01*
G54D13*
X250087Y619222D02*
X252887Y617667D01*
X253821Y616111D01*
X253821Y613000D01*
G54D13*
X246354Y613000D02*
X246354Y625444D01*
X251021Y625444D01*
X252887Y624667D01*
X253821Y623111D01*
X253821Y621556D01*
X252887Y620000D01*
X251021Y619222D01*
X246354Y619222D01*
G54D13*
X260852Y613000D02*
X260852Y625444D01*
X265519Y617667D01*
X270185Y625444D01*
X270185Y613000D01*
G54D13*
X280140Y613000D02*
X273607Y613000D01*
X273607Y625444D01*
X280140Y625444D01*
G54D13*
X273607Y619222D02*
X280140Y619222D01*
G54D13*
X287295Y613000D02*
X287295Y625444D01*
G54D13*
X283562Y625444D02*
X291029Y625444D01*
G54D13*
X300984Y613000D02*
X294451Y613000D01*
X294451Y625444D01*
X300984Y625444D01*
G54D13*
X294451Y619222D02*
X300984Y619222D01*
G54D13*
X308139Y619222D02*
X310939Y617667D01*
X311873Y616111D01*
X311873Y613000D01*
G54D13*
X304406Y613000D02*
X304406Y625444D01*
X309073Y625444D01*
X310939Y624667D01*
X311873Y623111D01*
X311873Y621556D01*
X310939Y620000D01*
X309073Y619222D01*
X304406Y619222D01*
G54D13*
X318904Y620000D02*
X322637Y613000D01*
X326371Y620000D01*
G54D13*
X337260Y613000D02*
X329793Y613000D01*
X329793Y613778D01*
X330726Y615333D01*
X336326Y620000D01*
X337260Y621556D01*
X337260Y623111D01*
X336326Y624667D01*
X334460Y625444D01*
X332593Y625444D01*
X330726Y624667D01*
X329793Y623111D01*
M02*
