%FSLAX34Y34*%
%MOMM*%
%LNSOLDERMASK_TOP*%
G71*
G01*
%ADD10C, 2.60*%
%ADD11R, 1.10X2.20*%
%ADD12R, 2.20X0.70*%
%ADD13R, 0.60X1.55*%
%ADD14R, 2.10X2.10*%
%ADD15R, 2.70X2.20*%
%ADD16R, 3.63X2.42*%
%ADD17R, 1.70X1.20*%
%ADD18R, 1.70X3.50*%
%ADD19R, 1.07X1.80*%
%ADD20R, 2.20X1.20*%
%ADD21R, 1.80X1.10*%
%ADD22R, 1.10X1.80*%
%LPD*%
X84000Y879000D02*
G54D10*
D03*
X84000Y853600D02*
G54D10*
D03*
X109400Y866300D02*
G54D10*
D03*
X109400Y840900D02*
G54D10*
D03*
X84000Y764000D02*
G54D10*
D03*
X84000Y738600D02*
G54D10*
D03*
X109400Y751300D02*
G54D10*
D03*
X109400Y725900D02*
G54D10*
D03*
X213000Y782500D02*
G54D11*
D03*
X213000Y911500D02*
G54D11*
D03*
X233000Y782500D02*
G54D11*
D03*
X233000Y911500D02*
G54D11*
D03*
X253000Y782500D02*
G54D11*
D03*
X253000Y911500D02*
G54D11*
D03*
X273000Y782500D02*
G54D11*
D03*
X273000Y911500D02*
G54D11*
D03*
X293000Y782500D02*
G54D11*
D03*
X293000Y911500D02*
G54D11*
D03*
X313000Y782500D02*
G54D11*
D03*
X313000Y911500D02*
G54D11*
D03*
X333000Y782500D02*
G54D11*
D03*
X333000Y911500D02*
G54D11*
D03*
X420000Y842000D02*
G54D12*
D03*
X420000Y850000D02*
G54D12*
D03*
X420000Y858000D02*
G54D12*
D03*
X420000Y866000D02*
G54D12*
D03*
X420000Y874000D02*
G54D12*
D03*
X384000Y647000D02*
G54D13*
D03*
X390500Y647000D02*
G54D13*
D03*
X397000Y647000D02*
G54D13*
D03*
X403500Y647000D02*
G54D13*
D03*
X410000Y647000D02*
G54D13*
D03*
X358000Y621500D02*
G54D14*
D03*
X436000Y620500D02*
G54D14*
D03*
X422500Y902500D02*
G54D15*
D03*
X477500Y902500D02*
G54D15*
D03*
X477500Y813500D02*
G54D15*
D03*
X422500Y813500D02*
G54D15*
D03*
X371925Y707925D02*
G54D16*
D03*
X371930Y764930D02*
G54D16*
D03*
X473500Y719500D02*
G54D17*
D03*
X473500Y742500D02*
G54D17*
D03*
X473500Y765500D02*
G54D17*
D03*
X410500Y742500D02*
G54D18*
D03*
X366400Y675155D02*
G54D19*
D03*
X336005Y675150D02*
G54D19*
D03*
X320700Y982900D02*
G54D20*
D03*
X380700Y982900D02*
G54D20*
D03*
X320700Y942900D02*
G54D20*
D03*
X380700Y942900D02*
G54D20*
D03*
X367700Y829700D02*
G54D10*
D03*
X367700Y804300D02*
G54D10*
D03*
X316000Y734000D02*
G54D21*
D03*
X316000Y702000D02*
G54D21*
D03*
X288000Y734000D02*
G54D21*
D03*
X288000Y702000D02*
G54D21*
D03*
X255000Y692000D02*
G54D21*
D03*
X255000Y660000D02*
G54D21*
D03*
X199000Y969000D02*
G54D22*
D03*
X167000Y969000D02*
G54D22*
D03*
X199000Y943000D02*
G54D22*
D03*
X167000Y943000D02*
G54D22*
D03*
X150000Y734000D02*
G54D21*
D03*
X150000Y702000D02*
G54D21*
D03*
X180000Y767000D02*
G54D21*
D03*
X180000Y735000D02*
G54D21*
D03*
X121610Y635390D02*
G54D10*
D03*
X121614Y660786D02*
G54D10*
D03*
X168004Y648004D02*
G54D10*
D03*
X193400Y648000D02*
G54D10*
D03*
M02*
