; Drill file
; Format: 2.4 (00.0000)
M48
INCH
T01C0.0217
T02C0.0236
T03C0.0354
T04C0.1181
%
G05
G90
T01
X014840Y025280
X016420Y025280
T02
X009210Y029490
X009960Y029490
X014800Y034290
X010750Y037090
T03
X004790Y025020
X004790Y026020
X006610Y025510
X007610Y025510
X004310Y028580
X004310Y029580
X003310Y030080
X003310Y029080
X004310Y033110
X004310Y034110
X003310Y034610
X003310Y033610
X014480Y032670
X014480Y031670
X017620Y032910
X017620Y034650
T04
X000920Y027850
X000920Y030930
X000920Y032380
X000920Y035450
M30
